HIERARCHY
ROOT Hips
{
 OFFSET 0.000000 0.000000 0.000000
 CHANNELS 6 Xposition Yposition Zposition Yrotation Xrotation Zrotation
 JOINT Chest
 {
  OFFSET 0.000000 9.585900 0.002600
  CHANNELS 3 Yrotation Xrotation Zrotation
  JOINT Chest2
  {
   OFFSET 0.000000 9.601200 -0.005300
   CHANNELS 3 Yrotation Xrotation Zrotation
   JOINT Chest3
   {
    OFFSET 0.000000 9.561800 0.000000
    CHANNELS 3 Yrotation Xrotation Zrotation
    JOINT Chest4
    {
     OFFSET 0.000000 9.552100 0.000000
     CHANNELS 3 Yrotation Xrotation Zrotation
     JOINT Neck
     {
      OFFSET 0.000000 14.453000 0.000000
      CHANNELS 3 Yrotation Xrotation Zrotation
      JOINT Head
      {
       OFFSET 0.000000 8.936500 -0.011300
       CHANNELS 3 Yrotation Xrotation Zrotation
       End Site
       {
        OFFSET 0.000000 17.073600 -0.006000
       }
      }
     }
     JOINT RightCollar
     {
      OFFSET -2.921100 9.558500 0.000000
      CHANNELS 3 Yrotation Xrotation Zrotation
      JOINT RightShoulder
      {
       OFFSET -13.519700 0.000000 0.000000
       CHANNELS 3 Yrotation Xrotation Zrotation
       JOINT RightElbow
       {
        OFFSET 0.000000 -29.696600 0.000000
        CHANNELS 3 Yrotation Xrotation Zrotation
        JOINT RightWrist
        {
         OFFSET 0.000000 -24.004700 0.000000
         CHANNELS 3 Yrotation Xrotation Zrotation
         End Site
         {
          OFFSET 0.000000 -17.728500 0.000000
         }
        }
       }
      }
     }
     JOINT LeftCollar
     {
      OFFSET 2.921100 9.558500 0.000000
      CHANNELS 3 Yrotation Xrotation Zrotation
      JOINT LeftShoulder
      {
       OFFSET 13.519700 0.000000 0.000000
       CHANNELS 3 Yrotation Xrotation Zrotation
       JOINT LeftElbow
       {
        OFFSET 0.000000 -29.696600 0.000000
        CHANNELS 3 Yrotation Xrotation Zrotation
        JOINT LeftWrist
        {
         OFFSET 0.000000 -24.004700 0.000000
         CHANNELS 3 Yrotation Xrotation Zrotation
         End Site
         {
          OFFSET 0.000000 -17.728500 0.000000
         }
        }
       }
      }
     }
    }
   }
  }
 }
 JOINT RightHip
 {
  OFFSET -7.771700 -0.012900 -0.001300
  CHANNELS 3 Yrotation Xrotation Zrotation
  JOINT RightKnee
  {
   OFFSET 0.000000 -40.869800 0.001200
   CHANNELS 3 Yrotation Xrotation Zrotation
   JOINT RightAnkle
   {
    OFFSET 0.000000 -39.717900 0.002100
    CHANNELS 3 Yrotation Xrotation Zrotation
    JOINT RightToe
    {
     OFFSET 0.000000 -4.965400 11.033500
     CHANNELS 3 Yrotation Xrotation Zrotation
     End Site
     {
      OFFSET 0.000000 -1.423100 5.872300
     }
    }
   }
  }
 }
 JOINT LeftHip
 {
  OFFSET 7.771700 -0.012900 -0.001300
  CHANNELS 3 Yrotation Xrotation Zrotation
  JOINT LeftKnee
  {
   OFFSET 0.000000 -40.869800 0.001200
   CHANNELS 3 Yrotation Xrotation Zrotation
   JOINT LeftAnkle
   {
    OFFSET 0.000000 -39.717900 0.002100
    CHANNELS 3 Yrotation Xrotation Zrotation
    JOINT LeftToe
    {
     OFFSET 0.000000 -4.965400 11.033500
     CHANNELS 3 Yrotation Xrotation Zrotation
     End Site
     {
      OFFSET 0.000000 -1.423100 5.872300
     }
    }
   }
  }
 }
}
MOTION
Frames: 12
Frame Time: 0.008333
0.000000 85.388000 0.000000 0.000000 -5.767877 0.000000 0.000000 11.653817 0.000000 0.000000 -5.885947 0.000000 0.000000 -0.000000 0.000000 0.000000 -0.000000 0.000000 0.000000 12.528835 0.000000 0.000000 0.711642 0.000000 0.000000 -0.000000 0.000000 0.000000 0.000000 -90.000000 0.000000 -2.309062 0.000000 0.000000 2.309062 0.000000 0.000000 -0.000000 0.000000 0.000000 -0.000000 90.000000 0.000000 -2.309062 0.000000 0.000000 2.309062 0.000000 0.000000 8.520406 0.000000 0.000000 1.905762 0.000000 -0.000000 -4.658285 0.000000 0.000000 -0.000000 0.000000 0.000000 8.520406 0.000000 0.000000 1.905762 0.000000 -0.000000 -4.658285 0.000000 0.000000 -0.000000 0.000000
-98.410741 57.544568 93.917541 -171.684516 -34.456360 0.489441 3.184792 20.267320 1.820236 0.390078 2.597452 0.277921 0.645697 4.250485 0.464447 2.935362 17.349119 2.263728 -1.268001 14.866825 -1.700106 -1.737355 -8.192844 -2.708558 1.653253 -2.650339 0.172958 10.446487 -17.303359 -18.568782 153.015022 -72.500465 -123.531405 13.707511 -19.398854 -44.905985 -5.703209 -2.117711 -1.263559 10.759894 -7.120621 0.322970 -166.384292 -61.653024 143.708517 -7.564876 -6.342069 16.361293 10.096589 -39.864558 -15.359286 -12.914565 71.036797 -18.328271 9.074033 20.523624 12.467164 -0.195353 -15.091359 3.827524 -2.304342 -37.456290 -9.046581 22.984017 62.952098 16.251358 -18.954064 8.731445 3.344154 0.537321 0.647891 0.528631
-98.436853 57.539424 93.916648 -171.516964 -34.470780 0.490896 3.222969 20.289066 1.798332 0.397309 2.604682 0.278140 0.657404 4.261661 0.465007 2.980073 17.364849 2.267976 -1.193148 14.875164 -1.721809 -1.589087 -8.176418 -2.777340 1.647961 -2.675986 0.199386 10.571979 -17.362680 -18.665471 153.094025 -72.598169 -123.450057 13.717502 -19.424276 -44.830328 -5.716380 -2.147256 -1.226745 10.757240 -7.100210 0.336385 -166.320440 -61.628375 143.636044 -7.578337 -6.351315 16.341134 10.122386 -39.813133 -15.503579 -13.004432 71.067595 -18.432505 9.080977 20.483831 12.507666 -0.220186 -15.099248 3.868404 -2.306959 -37.440455 -9.140259 23.002597 62.936028 16.182834 -18.984088 8.776247 3.394825 0.507967 0.632676 0.521137
-98.458313 57.533079 93.913742 -171.359824 -34.486294 0.461174 3.284817 20.309724 1.817618 0.404768 2.611123 0.278596 0.669502 4.271431 0.465973 3.026739 17.377757 2.274613 -1.122365 14.886837 -1.744942 -1.448094 -8.153681 -2.847199 1.643886 -2.698261 0.228555 10.708895 -17.434173 -18.764025 153.172095 -72.685581 -123.376480 13.726873 -19.446892 -44.757371 -5.729679 -2.171405 -1.186914 10.745651 -7.087295 0.352354 -166.291119 -61.608745 143.594966 -7.587847 -6.363123 16.326780 10.152582 -39.761858 -15.607274 -13.145513 71.093371 -18.554728 9.066166 20.459432 12.461570 -0.240885 -15.113790 3.977141 -2.321795 -37.425451 -9.195508 23.005091 62.930094 16.128334 -19.043455 8.798944 3.438970 0.539555 0.615937 0.452684
-98.474384 57.522518 93.913398 -171.210319 -34.468417 0.401405 3.366084 20.294130 1.872852 0.411927 2.616505 0.279317 0.681198 4.279684 0.467215 3.072194 17.387753 2.282768 -1.055539 14.900456 -1.769348 -1.314086 -8.127282 -2.917818 1.644147 -2.716019 0.260817 10.858540 -17.512512 -18.863790 153.238678 -72.757945 -123.303414 13.734654 -19.461740 -44.692630 -5.740925 -2.191088 -1.147244 10.732694 -7.080074 0.371182 -166.294722 -61.593782 143.576844 -7.592072 -6.370917 16.319448 10.147064 -39.753657 -15.673314 -13.288682 71.104522 -18.658535 9.022503 20.461433 12.397762 -0.213070 -15.130109 4.057215 -2.347979 -37.442834 -9.211700 23.010168 62.923652 16.086116 -19.077158 8.799134 3.446398 0.537787 0.628419 0.450958
-98.513466 57.518667 93.904709 -171.009370 -34.528250 0.438372 3.360420 20.360241 1.801185 0.418469 2.621109 0.280321 0.691873 4.286877 0.468842 3.114089 17.395971 2.292318 -0.993434 14.917231 -1.795630 -1.188268 -8.094996 -2.990123 1.647941 -2.728531 0.292928 11.018396 -17.596109 -18.964447 153.302620 -72.817169 -123.242225 13.740081 -19.467837 -44.631383 -5.748262 -2.208953 -1.112261 10.722140 -7.075208 0.394973 -166.328257 -61.583854 143.577871 -7.593034 -6.376604 16.318425 10.143478 -39.656959 -15.843374 -13.110487 71.198419 -18.591124 9.006171 20.346971 12.529711 -0.289474 -15.118508 4.072392 -2.355305 -37.388063 -9.395254 23.088925 62.898711 16.096911 -19.109186 8.838425 3.453505 0.508531 0.618207 0.488252
-98.544091 57.511729 93.897373 -170.819394 -34.560906 0.431868 3.383919 20.393619 1.785485 0.424226 2.625236 0.281329 0.701228 4.293182 0.470615 3.151075 17.403139 2.301976 -0.937256 14.937622 -1.823882 -1.072904 -8.055929 -3.063924 1.651728 -2.736176 0.324233 11.187253 -17.687159 -19.065749 153.365365 -72.868198 -123.192257 13.745954 -19.465963 -44.568050 -5.752417 -2.226426 -1.083277 10.712922 -7.070332 0.423274 -166.384058 -61.577010 143.596339 -7.590408 -6.382191 16.319928 10.185952 -39.577999 -15.986810 -13.054021 71.271410 -18.557210 8.898824 20.272533 12.592653 -0.251277 -15.114561 4.087248 -2.389372 -37.360056 -9.517018 23.172959 62.876768 16.115072 -19.123880 8.861040 3.490065 0.462686 0.621908 0.499452
-98.565487 57.502013 93.891219 -170.617572 -34.567281 0.365004 3.419373 20.397087 1.830564 0.429284 2.628866 0.282282 0.709478 4.298646 0.472354 3.183617 17.409228 2.311103 -0.887309 14.959992 -1.853692 -0.968721 -8.013261 -3.138285 1.654879 -2.742366 0.353495 11.362322 -17.784604 -19.163325 153.419595 -72.911696 -123.143420 13.753224 -19.460493 -44.501611 -5.754521 -2.242646 -1.060220 10.702144 -7.067065 0.454769 -166.454622 -61.572445 143.628945 -7.586699 -6.386449 16.320234 10.178869 -39.537371 -16.066179 -13.018822 71.335543 -18.523162 8.828697 20.225532 12.515439 -0.288838 -15.129937 4.241361 -2.344527 -37.347884 -9.589789 23.062333 62.888363 16.017039 -19.238562 8.882138 3.481719 0.537522 0.625504 0.525539
-98.591470 57.492251 93.885130 -170.424639 -34.572995 0.329789 3.452473 20.403045 1.850588 0.433843 2.631764 0.283328 0.716918 4.303101 0.474195 3.213023 17.413643 2.320520 -0.842821 14.981982 -1.885117 -0.874186 -7.971408 -3.213534 1.658514 -2.748500 0.378788 11.537866 -17.886045 -19.254883 153.467949 -72.945124 -123.095826 13.757544 -19.457708 -44.432222 -5.754940 -2.255557 -1.041741 10.687325 -7.069658 0.486988 -166.521514 -61.570025 143.660272 -7.585264 -6.389839 16.320159 10.174118 -39.499512 -16.174244 -12.903497 71.407559 -18.427355 8.745332 20.174701 12.468094 -0.312642 -15.142805 4.359556 -2.319757 -37.336975 -9.695293 23.031733 62.880479 15.975302 -19.312920 8.896473 3.489942 0.580348 0.621027 0.493413
-98.621303 57.482773 93.878977 -170.241029 -34.579823 0.321182 3.483239 20.412741 1.850199 0.437881 2.633819 0.284396 0.723515 4.306267 0.476067 3.239529 17.415967 2.330047 -0.802621 15.003236 -1.918366 -0.786959 -7.930834 -3.290534 1.664555 -2.752091 0.400509 11.709535 -17.992475 -19.342747 153.507557 -72.970309 -123.042807 13.759739 -19.459681 -44.367811 -5.752522 -2.263309 -1.026565 10.667453 -7.078211 0.518435 -166.567595 -61.566120 143.675105 -7.583169 -6.392408 16.320597 10.145858 -39.466917 -16.297550 -12.682370 71.484926 -18.254220 8.668405 20.117403 12.438287 -0.342631 -15.152378 4.455445 -2.302741 -37.325601 -9.824601 23.050408 62.861293 15.963203 -19.367784 8.912537 3.524368 0.564154 0.640567 0.517047
-98.653935 57.473363 93.873333 -170.058828 -34.584180 0.327894 3.508801 20.421398 1.837375 0.441215 2.635287 0.285371 0.729071 4.308472 0.477673 3.261963 17.417100 2.338496 -0.765428 15.024070 -1.952711 -0.705051 -7.890898 -3.368345 1.672441 -2.753420 0.420174 11.876465 -18.104515 -19.426366 153.520417 -72.988967 -122.965499 13.763479 -19.465651 -44.319751 -5.748457 -2.267135 -1.012542 10.644251 -7.089552 0.548827 -166.591205 -61.557456 143.671245 -7.578776 -6.393634 16.320242 10.129673 -39.434380 -16.441407 -12.458591 71.562340 -18.075165 8.579393 20.059712 12.390853 -0.365619 -15.159862 4.561795 -2.323676 -37.322006 -9.962342 23.148686 62.829437 15.997864 -19.382407 8.929597 3.566187 0.526471 0.643466 0.496637
-98.683739 57.463824 93.867807 -169.866225 -34.583374 0.308222 3.532629 20.423337 1.849232 0.444061 2.636687 0.286325 0.733802 4.310565 0.479196 3.281027 17.418392 2.346440 -0.730355 15.044034 -1.987511 -0.627022 -7.852560 -3.446222 1.678561 -2.755263 0.437206 12.038802 -18.220914 -19.503080 153.496007 -72.999052 -122.853414 13.767227 -19.475210 -44.291656 -5.746732 -2.270594 -0.999822 10.621331 -7.102151 0.578176 -166.597135 -61.546517 143.653111 -7.577041 -6.395910 16.319622 10.192290 -39.382520 -16.590636 -12.436760 71.625217 -18.031493 8.431850 20.008295 12.362475 -0.317008 -15.161716 4.638945 -2.373476 -37.323190 -10.072591 23.259180 62.794952 16.041296 -19.383015 8.938595 3.600361 0.507124 0.636044 0.435264
